# xmcd CD database file
#
# Track frame offsets:
#	150
#	21676
#	43127
#	69948
#	94200
#	118569
#	144219
#	164738
#	187660
#
# Disc length: 2863 seconds
#
# Revision: 1
# Processed by: cddbd v1.5.1PL0 Copyright (c) Steve Scherf et al.
# Submitted via: CDex 1.51
#
DISCID=790b2d09
DTITLE=Isao Sasaki - framescape
DYEAR=2004
DGENRE=New Age
TTITLE0=Landscape
TTITLE1=My Memory
TTITLE2=Framescape
TTITLE3=Forest
TTITLE4=Autumn Serenade
TTITLE5=Misty
TTITLE6=Melancholy
TTITLE7=I Believe
TTITLE8=I
EXTD=YEAR: 2004
EXTT0=
EXTT1=
EXTT2=
EXTT3=
EXTT4=
EXTT5=
EXTT6=
EXTT7=
EXTT8=
PLAYORDER=
